<?xml version="1.0" ?><!-- Uploaded to: SVG Repo, www.svgrepo.com, Generator: SVG Repo Mixer Tools -->
<svg fill="#000000" width="800px" height="800px" viewBox="0 0 64 64" id="Layer_1_1_" version="1.1" xml:space="preserve" xmlns="http://www.w3.org/2000/svg" xmlns:xlink="http://www.w3.org/1999/xlink"><path d="M52,35c0.005-11.585,3.404-22.805,9.832-32.445L62.868,1h-3.282l-0.293,0.293C50.721,9.865,46,21.262,46,33.385V35H33.868  c1.383-7.986,4.409-15.613,8.964-22.445L43.868,11h-3.282l-0.293,0.293C33.732,17.854,29.438,26.071,27.779,35H14.315  c0.97-9.436,4.207-18.48,9.517-26.445L24.868,7h-3.282l-0.293,0.293C13.763,14.823,9.208,24.533,8.211,35H1v28h62V35H52z M61,39.052  c-2.214,0.238-3.487,1.255-4.626,2.166C55.18,42.174,54.148,42.998,52,43v-6h9V39.052z M48,48.223V33.385  c0-9.56,3.07-18.646,8.745-26.135C52.315,15.812,50,25.295,50,35.027v13.195l0.33,0.298C50.762,48.91,51,49.436,51,50  c0,1.103-0.897,2-2,2s-2-0.897-2-2c0-0.564,0.238-1.09,0.67-1.479L48,48.223z M46,37v3.049C45.005,39.455,43.766,39,41.991,39  c-2.851,0-4.324,1.179-5.624,2.219c-0.98,0.785-1.861,1.473-3.329,1.698c0.071-1.988,0.249-3.961,0.518-5.916H46z M29,43.385  c0-9.56,3.07-18.646,8.745-26.135C33.315,25.812,31,35.295,31,45.027v4.049l0.599,0.262C33.058,49.977,34,51.414,34,53  c0,2.206-1.794,4-4,4s-4-1.794-4-4c0-1.586,0.942-3.023,2.401-3.662L29,49.076V43.385z M27.45,37c-0.175,1.254-0.3,2.52-0.371,3.796  C25.894,39.884,24.46,39,21.992,39c-2.85,0-4.323,1.179-5.623,2.219c-0.756,0.605-1.438,1.147-2.369,1.471v-1.662  c0-1.348,0.051-2.691,0.142-4.027H27.45z M10,47.223v-7.838c0-9.56,3.07-18.646,8.745-26.135C14.315,21.812,12,31.295,12,41.027  v6.195l0.33,0.298C12.762,47.91,13,48.436,13,49c0,1.103-0.897,2-2,2s-2-0.897-2-2c0-0.564,0.238-1.09,0.67-1.479L10,47.223z   M8.064,37C8.023,37.792,8,38.586,8,39.385v2.125c-0.125-0.098-0.25-0.189-0.377-0.29C6.485,40.309,5.213,39.291,3,39.052V37H8.064z   M3,61v-5.924c1.495,0.217,2.383,0.912,3.372,1.704c1.3,1.041,2.773,2.22,5.623,2.22s4.323-1.179,5.623-2.219  C18.812,55.825,19.844,55,21.992,55v-2c-2.851,0-4.324,1.179-5.624,2.22C15.174,56.175,14.144,57,11.995,57s-3.18-0.825-4.373-1.781  C6.484,54.308,5.212,53.291,3,53.052V41.076c1.496,0.217,2.384,0.912,3.373,1.705C6.875,43.182,7.392,43.593,8,43.954v2.416  C7.359,47.099,7,48.034,7,49c0,2.206,1.794,4,4,4s4-1.794,4-4c0-0.966-0.359-1.901-1-2.63v-1.602  c1.617-0.394,2.674-1.232,3.619-1.988c1.193-0.955,2.225-1.78,4.373-1.78s3.181,0.825,4.375,1.78  c0.208,0.166,0.423,0.325,0.636,0.487c0,0.039-0.003,0.078-0.003,0.117v4.424c-1.842,1.064-3,3.036-3,5.191c0,3.309,2.691,6,6,6  s6-2.691,6-6c0-2.155-1.158-4.127-3-5.191v-2.781c0-0.027,0.001-0.053,0.001-0.08c2.209-0.24,3.479-1.256,4.616-2.166  C38.812,41.825,39.843,41,41.991,41c1.933,0,2.958,0.664,4.009,1.489v4.881c-0.641,0.729-1,1.664-1,2.63c0,2.206,1.794,4,4,4  s4-1.794,4-4c0-0.966-0.359-1.901-1-2.63V45c2.849-0.001,4.322-1.179,5.623-2.219c0.991-0.793,1.879-1.488,3.377-1.705v11.976  c-2.214,0.238-3.487,1.255-4.626,2.166C55.179,56.175,54.146,57,51.995,57c-2.15,0-3.183-0.825-4.377-1.781  C46.317,54.179,44.843,53,41.991,53c-1.634,0-2.994,0.388-4.28,1.22l1.086,1.68C39.484,55.454,40.401,55,41.991,55  c2.15,0,3.183,0.825,4.377,1.781C47.669,57.821,49.144,59,51.995,59c2.853,0,4.326-1.179,5.628-2.219  c0.991-0.793,1.879-1.488,3.377-1.705V61H3z"/></svg>