<?xml version="1.0" ?>
<!-- Uploaded to: SVG Repo, www.svgrepo.com, Generator: SVG Repo Mixer Tools -->
<svg fill="#000000" width="800px" height="800px" viewBox="0 0 64 64" id="Layer_1_1_" version="1.1" xml:space="preserve" xmlns="http://www.w3.org/2000/svg" xmlns:xlink="http://www.w3.org/1999/xlink">
<g>
<path d="M49.07,45.43l1.643,1.141c0.457-0.657,0.887-1.363,1.281-2.099l-1.763-0.943C49.873,44.195,49.482,44.836,49.07,45.43z"/>
<path d="M40,11c-1.815,0-3.592,0.459-5.282,1.363c-1.961,1.051-3.256,3.125-3.465,5.551l1.992,0.172   c0.153-1.775,1.034-3.219,2.417-3.959C37.059,13.379,38.518,13,40,13c7.047,0,13,8.701,13,19c0,3.353-0.645,6.678-1.865,9.616   l1.847,0.768C54.302,39.204,55,35.613,55,32C55,20.617,48.131,11,40,11z"/>
<path d="M40,7c-2.481,0-4.894,0.618-7.17,1.837c-3.232,1.731-5.215,4.981-5.552,8.655C23.266,13.372,21,7.842,21,2V1h-6v1   c0,9.597,4.764,18.372,12.759,23.614c-0.249,0.901-0.681,1.716-1.307,2.327l-0.549,0.536l0.375,0.669   C26.751,29.986,27,30.974,27,32s-0.249,2.014-0.721,2.854l-0.375,0.669l0.549,0.536C27.436,37.02,28,38.455,28,40   c0,0.59-0.082,1.166-0.255,1.754C27.186,43.665,25.404,45,23.413,45H22c-9.374,0-17,7.626-17,17v1h7.82l0.161-0.804   C14.046,56.867,18.764,53,24.198,53h1.465c2.448,0,4.68,0.604,6.456,1.746c0.229,0.146,0.466,0.286,0.71,0.417   C35.106,56.382,37.519,57,40,57c10.477,0,19-11.215,19-25S50.477,7,40,7z M17.019,3h2.002c0.272,6.681,3.265,12.91,8.311,17.286   c0.088,0.664,0.228,1.334,0.425,2.002c0.1,0.339,0.158,0.693,0.197,1.051C21.334,18.604,17.322,11.163,17.019,3z M40,55   c-2.148,0-4.243-0.538-6.227-1.601c-0.197-0.105-0.389-0.218-0.572-0.336C31.102,51.714,28.496,51,25.664,51h-1.465   c-6.107,0-11.445,4.158-12.992,10H7.033C7.55,53.193,14.065,47,22,47h1.413c2.874,0,5.444-1.926,6.262-4.721   C29.891,41.548,30,40.781,30,40c0-1.812-0.594-3.53-1.65-4.824C28.777,34.197,29,33.112,29,32s-0.223-2.197-0.65-3.176   C29.406,27.53,30,25.812,30,24c0-0.781-0.109-1.548-0.325-2.279c-1.338-4.538,0.348-9.111,4.099-11.12C35.757,9.538,37.852,9,40,9   c9.374,0,17,10.317,17,23S49.374,55,40,55z"/>
</g>
</svg>